#FILENAME=ca0f2d0f
# xmcd CD database file
# Copyright (C) 1995-1998 Ti Kan
#
# Track frame offsets:
#	150
#	15782
#	39927
#	66647
#	91772
#	117425
#	133312
#	152122
#	165310
#	184347
#	204507
#	220575
#	236550
#	261447
#	277677
#
# Disc length: 3887 seconds
#
# Revision: 34549100
# Submitted via:  CDmax 1.7.5
#
DISCID=ca0f2d0f
DTITLE=Various Artists / Mission: Impossible Soundtrack
TTITLE0=Larry Mullen & Adam Clayton / Theme From Mission: Impossible
TTITLE1=Massive Attack / Spying Glass
TTITLE2=Pulp / I Spy
TTITLE3=Danny Elfman / Impossible Mission
TTITLE4=Bjork / Headphones
TTITLE5=Skunk Anansie / Weak
TTITLE6=Longpigs / On & On
TTITLE7=Danny Elfman / Claire
TTITLE8=The Cranberries / Dreams
TTITLE9=Gavin Friday / You, Me And World War III
TTITLE10=Salt / So
TTITLE11=Danny Elfman / Trouble
TTITLE12=Nicolette / No Government
TTITLE13=Cast / Alright
TTITLE14=Adam Clayton & Larry Mullen / Mission: Impossible Theme ( Mission
TTITLE14=Accomplished )
EXTD=\nYEAR: 1999  ID3G:  24
EXTT0=Larry Mullen & Adam Clayton
EXTT1=Massive Attack
EXTT2=Pulp
EXTT3=Danny Elfman
EXTT4=Bjork
EXTT5=Skunk Anansie
EXTT6=Longpigs
EXTT7=Danny Elfman
EXTT8=The Cranberries
EXTT9=Gavin Friday
EXTT10=Salt
EXTT11=Danny Elfman
EXTT12=Nicolette
EXTT13=Cast
EXTT14=Adam Clayton & Larry Mullen
PLAYORDER=
